<mxfile host="app.diagrams.net" modified="2023-07-09T23:14:05.027Z" agent="Mozilla/5.0 (Windows NT 10.0; Win64; x64) AppleWebKit/537.36 (KHTML, like Gecko) Chrome/114.0.0.0 Safari/537.36" etag="V_VFbHxp-BMNPF2JPfJU" version="21.5.0" type="device">
  <diagram name="PÃ¡gina-1" id="YGdMxlkd52XxurO2aGFY">
    <mxGraphModel dx="1350" dy="950" grid="1" gridSize="10" guides="1" tooltips="1" connect="1" arrows="1" fold="1" page="1" pageScale="1" pageWidth="850" pageHeight="1100" math="0" shadow="0">
      <root>
        <mxCell id="0" />
        <mxCell id="1" parent="0" />
        <mxCell id="8Dhyyp3plc62vMw037HY-1" value="" style="rounded=0;whiteSpace=wrap;html=1;" vertex="1" parent="1">
          <mxGeometry x="120" width="640" height="800" as="geometry" />
        </mxCell>
        <mxCell id="8Dhyyp3plc62vMw037HY-5" value="&amp;lt;HEADER&amp;gt;" style="rounded=0;whiteSpace=wrap;html=1;" vertex="1" parent="1">
          <mxGeometry x="120" width="640" height="110" as="geometry" />
        </mxCell>
        <mxCell id="8Dhyyp3plc62vMw037HY-6" value="&amp;lt;Jumbotron&amp;gt;" style="rounded=0;whiteSpace=wrap;html=1;" vertex="1" parent="1">
          <mxGeometry x="120" y="110" width="640" height="250" as="geometry" />
        </mxCell>
        <mxCell id="8Dhyyp3plc62vMw037HY-7" value="&amp;lt;MAIN&amp;gt;" style="rounded=0;whiteSpace=wrap;html=1;" vertex="1" parent="1">
          <mxGeometry x="120" y="360" width="640" height="240" as="geometry" />
        </mxCell>
        <mxCell id="8Dhyyp3plc62vMw037HY-8" value="&amp;lt;FOOTER" style="rounded=0;whiteSpace=wrap;html=1;" vertex="1" parent="1">
          <mxGeometry x="120" y="600" width="640" height="200" as="geometry" />
        </mxCell>
      </root>
    </mxGraphModel>
  </diagram>
</mxfile>
